# xmcd CD database file
#
# Track frame offsets:
#	150
#	21785
#	40035
#	58600
#	80590
#	99443
#
# Disc length: 1591 seconds
#
# Revision: 0
# Processed by: cddbd v1.5.1PL2 Copyright (c) Steve Scherf et al.
# Submitted via: CDex 1.51
#
DISCID=3f063506
DTITLE=Inst. - アンティークオルゴール・セレクション CHAGE&ASKA
DYEAR=1995
DGENRE=Instrumental
TTITLE0=めぐり逢い
TTITLE1=太陽と埃の中で
TTITLE2=SAY YES
TTITLE3=YAH YAH YAH
TTITLE4=はじまりはいつも雨
TTITLE5=You are free
EXTD=YEAR: 1995
EXTT0=
EXTT1=
EXTT2=
EXTT3=
EXTT4=
EXTT5=
PLAYORDER=
